<?xml version="1.0" encoding="utf-8"?>
<svg viewBox="-7.088 -55.742 1370.22 416.33" xmlns="http://www.w3.org/2000/svg">
  <defs>
    <linearGradient id="linear-gradient" x1="198.25" y1="387.89" x2="424.54" y2="213.95" gradientUnits="userSpaceOnUse" gradientTransform="matrix(1.45339, 0, 0, 1.45339, -188.132324, -147.217331)">
      <stop offset="0" stop-color="#92c83e"/>
      <stop offset="1" stop-color="#1ba8e0"/>
    </linearGradient>
  </defs>
  <g id="Option_A_Colors_1" data-name="Option A_Colors 1" transform="matrix(1, 0, 0, 1, -78.474388, -52.627766)">
    <path class="cls-1" d="M 473.159 286.808 C 470.277 286.79 467.577 285.397 465.893 283.059 L 277.766 21.376 L 133.066 222.627 C 131.382 224.966 128.681 226.358 125.799 226.376 L 80.817 226.376 C 73.874 226.655 69.234 219.314 72.464 213.162 C 74.084 210.077 77.335 208.2 80.817 208.34 L 121.12 208.34 L 270.455 0.65 C 272.137 -1.693 274.837 -3.093 277.722 -3.114 L 277.722 -3.114 C 280.604 -3.084 283.301 -1.687 284.989 0.65 L 480.427 272.535 C 484.488 278.146 480.954 286.048 474.065 286.761 C 473.764 286.791 473.462 286.808 473.159 286.808 Z M 343.807 155.262 C 343.807 150.277 339.766 146.237 334.782 146.237 L 219.529 146.237 C 212.581 146.237 208.238 153.758 211.712 159.775 C 213.325 162.568 216.304 164.288 219.529 164.288 L 334.84 164.288 C 339.802 164.255 343.807 160.224 343.807 155.262 Z M 310.554 93.144 C 310.546 88.171 306.516 84.141 301.544 84.133 L 252.782 84.133 C 245.84 83.855 241.198 91.195 244.428 97.347 C 246.048 100.432 249.3 102.309 252.782 102.169 L 301.66 102.169 C 306.616 102.13 310.613 98.1 310.613 93.144 Z M 394.212 217.366 C 394.212 212.381 390.171 208.34 385.186 208.34 L 333.78 208.34 C 326.837 208.619 322.8 216.308 326.512 222.181 C 328.098 224.688 330.815 226.258 333.78 226.376 L 385.244 226.376 C 390.226 226.384 394.269 222.347 394.269 217.366 Z M 301.703 217.366 C 301.703 212.381 297.663 208.34 292.678 208.34 L 173.355 208.34 C 166.412 208.061 161.771 215.402 165.001 221.553 C 166.621 224.639 169.872 226.516 173.355 226.376 L 292.736 226.376 C 297.718 226.384 301.761 222.347 301.761 217.366 Z M 424.805 279.556 C 424.805 274.577 420.773 270.538 415.794 270.53 L 192.466 270.53 C 185.524 270.81 181.486 278.498 185.199 284.371 C 186.785 286.879 189.502 288.448 192.466 288.567 L 415.852 288.567 C 420.826 288.559 424.856 284.529 424.864 279.556 Z M 158.835 279.556 C 158.835 274.577 154.803 270.538 149.824 270.53 L 80.788 270.53 C 73.845 270.252 69.205 277.593 72.434 283.744 C 74.054 286.83 77.306 288.706 80.788 288.567 L 149.824 288.567 C 154.809 288.575 158.856 284.54 158.863 279.556 Z M 482.084 341.543 C 482.075 336.556 478.03 332.517 473.043 332.517 L 228.99 332.517 C 222.048 332.239 217.407 339.579 220.637 345.732 C 222.256 348.816 225.507 350.694 228.99 350.555 L 473.014 350.555 C 478.021 350.594 482.104 346.551 482.112 341.543 Z M 190.286 341.543 C 190.286 336.558 186.245 332.517 181.261 332.517 L 80.817 332.517 C 73.874 332.239 69.234 339.579 72.464 345.732 C 74.084 348.816 77.335 350.694 80.817 350.555 L 181.289 350.555 C 186.272 350.562 190.315 346.525 190.315 341.543 Z M 482.084 403.719 C 482.084 398.734 478.043 394.694 473.058 394.694 L 80.817 394.694 C 73.874 394.415 69.234 401.755 72.464 407.908 C 74.084 410.992 77.335 412.87 80.817 412.731 L 473.159 412.731 C 478.114 412.698 482.112 408.673 482.112 403.719 Z" style="fill: url(#linear-gradient);"/>
    <path class="cls-2" d="M 696.191 308.098 L 696.191 348.164 L 577.817 348.164 L 577.817 151.293 L 624.538 151.293 L 624.538 308.098 Z" style="fill: rgb(255, 255, 255);"/>
    <path class="cls-2" d="M 764.209 342.244 C 752.788 335.761 743.533 326.048 737.612 314.324 C 725.652 289.286 725.652 260.185 737.612 235.149 C 743.533 223.424 752.788 213.714 764.209 207.229 C 791.224 193.541 823.147 193.541 850.162 207.229 C 861.562 213.7 870.781 223.419 876.638 235.149 C 888.39 260.23 888.39 289.24 876.638 314.324 C 870.781 326.053 861.562 335.772 850.162 342.244 C 823.135 355.886 791.238 355.886 764.209 342.244 Z M 830.563 303.94 C 835.823 297.196 838.461 287.418 838.481 274.598 C 838.504 261.777 835.863 252.088 830.563 245.536 C 825.262 238.775 817.516 235.398 807.326 235.398 C 797.134 235.398 789.256 238.775 783.686 245.536 C 778.323 252.296 775.643 261.98 775.643 274.598 C 775.643 287.212 778.323 296.991 783.686 303.94 C 789.05 310.675 796.928 314.056 807.326 314.077 C 817.72 314.095 825.468 310.719 830.563 303.94 Z" style="fill: rgb(255, 255, 255);"/>
    <path class="cls-2" d="M 1068.761 128.425 L 1068.761 348.072 L 1023.581 348.072 L 1023.581 338.455 C 1012.37 347.432 998.463 352.37 984.102 352.478 C 971.898 352.714 959.85 349.714 949.183 343.786 C 938.756 337.653 930.43 328.513 925.299 317.561 C 913.711 290.174 913.711 259.266 925.299 231.884 C 930.433 220.94 938.761 211.805 949.183 205.686 C 959.844 199.734 971.894 196.721 984.102 196.965 C 998.46 197.085 1012.361 202.022 1023.581 210.987 L 1023.581 128.425 Z M 1023.581 301.874 L 1023.581 247.6 C 1015.092 240.995 1004.715 237.267 993.962 236.969 C 983.956 236.969 976.388 240.162 971.252 246.553 C 966.111 252.941 963.567 262.288 963.607 274.598 C 963.607 286.927 966.167 296.51 971.252 302.89 C 976.336 309.269 983.948 312.506 993.962 312.506 C 1004.715 312.203 1015.092 308.481 1023.581 301.874 Z" style="fill: rgb(255, 255, 255);"/>
    <path class="cls-2" d="M 1259.838 201.066 L 1259.838 347.486 C 1260.019 359.174 1257.298 370.729 1251.915 381.108 C 1246.609 391.071 1238.484 399.249 1228.556 404.623 C 1217.16 410.583 1204.431 413.532 1191.574 413.189 C 1179.164 413.277 1166.759 412.577 1154.437 411.094 C 1144.155 409.822 1134.053 407.381 1124.326 403.822 L 1124.326 362.341 C 1133.252 366.089 1142.551 368.877 1152.064 370.66 C 1160.361 372.282 1168.789 373.148 1177.242 373.25 C 1190.217 373.25 1199.708 370.846 1205.659 365.976 C 1211.799 360.781 1215.126 352.984 1214.625 344.959 L 1214.625 333.278 C 1203.409 342.238 1189.504 347.181 1175.148 347.301 C 1154.6 347.301 1138.164 341.198 1125.837 328.993 C 1113.51 316.789 1107.458 297.773 1107.686 271.947 C 1107.245 257.685 1110.224 243.524 1116.375 230.65 C 1121.617 220.006 1129.934 211.188 1140.259 205.348 C 1150.983 199.583 1163.008 196.673 1175.176 196.904 C 1189.537 197.025 1203.439 201.963 1214.656 210.927 L 1214.656 201.066 Z M 1214.656 296.603 L 1214.656 247.6 C 1206.178 240.996 1195.814 237.274 1185.07 236.969 C 1175.025 236.969 1167.442 239.945 1162.327 245.906 C 1157.209 251.862 1154.644 260.545 1154.622 271.947 C 1154.622 284.931 1157.089 294.063 1162.017 299.347 C 1166.95 304.626 1174.614 307.266 1185.009 307.266 C 1195.775 306.961 1206.162 303.227 1214.656 296.603 Z" style="fill: rgb(255, 255, 255);"/>
    <path class="cls-2" d="M 1360.43 308.098 C 1366.409 312.74 1375.192 315.072 1386.779 315.094 C 1393.31 315.132 1399.819 314.301 1406.134 312.628 C 1413.446 310.535 1420.535 307.705 1427.277 304.185 L 1438.955 338.977 C 1430.595 343.758 1421.583 347.301 1412.205 349.488 C 1401.801 351.673 1391.188 352.706 1380.555 352.57 C 1365.383 353.022 1350.34 349.677 1336.793 342.83 C 1325.106 336.692 1315.564 327.148 1309.427 315.463 C 1296.87 289.213 1296.957 258.675 1309.672 232.498 C 1315.572 221.347 1324.589 212.145 1335.62 206.027 C 1346.862 199.964 1359.465 196.876 1372.235 197.057 C 1393.868 197.057 1410.829 203.333 1423.115 215.89 C 1435.402 228.441 1441.568 246.747 1441.606 270.807 L 1441.606 288.715 L 1348.781 288.715 C 1350.267 296.343 1354.39 303.205 1360.43 308.098 Z M 1357.039 239.033 C 1353.157 242.134 1350.436 247.496 1348.873 255.121 L 1394.052 255.121 C 1393.931 249.238 1391.662 243.604 1387.673 239.278 C 1383.35 235.739 1377.839 233.976 1372.264 234.349 C 1366.8 234.102 1361.423 235.762 1357.039 239.033 Z" style="fill: rgb(255, 255, 255);"/>
  </g>
</svg>